# xmcd
#
# Track frame offsets:
#	150
#	17877
#	33970
#	50595
#	72735
#	84922
#	98610
#	111747
#	123802
#	135852
#	151792
#	161570
#	178512
#
# Disc length: 2544 seconds
#
# Revision: 0
# Processed by: cddbd v1.4PL0 Copyright (c) Steve Scherf et al.
# Submitted via: audiograbber 1.81.03
#
DISCID=a009ee0d
DTITLE=Various Artist - When I Get There
DYEAR=2000
DGENRE=Christian
TTITLE0=New Tradition - Jesus Blazed the Trail
TTITLE1=The Village Singers - On My Father's Side
TTITLE2=New Coon Creek Girls - Clinging To A Saving Hand
TTITLE3=The Rarely Herd - Heartbeat
TTITLE4=Larry Stephenson - Help Thy Brother
TTITLE5=The Reno Brothers (Gospel Quartet) - Let In The Guiding Light
TTITLE6=Continental Divide - I Dreamed I Drove The Nails
TTITLE7=New Tradition - When I Get There
TTITLE8=Larry Stephenson - Hymn From Way Back Home
TTITLE9=New Coon Creek Girls - Who Will Pray For Me
TTITLE10=The Village Singers - When I Lift Up My Head
TTITLE11=New Vintage - He Took Your Place
TTITLE12=The Rarely Herd - Holy, Holy, Holy
EXTD=
EXTT0=
EXTT1=
EXTT2=
EXTT3=
EXTT4=
EXTT5=
EXTT6=
EXTT7=
EXTT8=
EXTT9=
EXTT10=
EXTT11=
EXTT12=
PLAYORDER=
